# xmcd
#
# Track frame offsets:
#	150
#	16747
#	34654
#	50195
#	69236
#	89471
#	104415
#	124056
#	141264
#	153309
#
# Disc length: 2242 seconds
#
# Revision: 0
# Processed by: cddbd v1.5.2PL0 Copyright (c) Steve Scherf et al.
# Submitted via: EasyCDDAExtractor 16.0.0.1
#
DISCID=8208c00a
DTITLE=Donna Dean - What Am I Gonna Do?
DYEAR=2010
DGENRE=Americana
TTITLE0=What Am I Going To Do
TTITLE1=Baby Doesn't Love Me
TTITLE2=Empty Big Blue Sky
TTITLE3=Rain Fall On Me
TTITLE4=Pray
TTITLE5=Some Sweet Day
TTITLE6=Fireflies
TTITLE7=A Silent Lie
TTITLE8=Too High
TTITLE9=Tumble
EXTD=
EXTT0=
EXTT1=
EXTT2=
EXTT3=
EXTT4=
EXTT5=
EXTT6=
EXTT7=
EXTT8=
EXTT9=
PLAYORDER=
